<svg width="32" height="30" viewBox="0 0 32 30" fill="none" xmlns="http://www.w3.org/2000/svg">
<path fill-rule="evenodd" clip-rule="evenodd" d="M16 0.275757C7.66327 0.275757 0.903015 7.03451 0.903015 15.3728C0.903015 22.0433 5.22877 27.702 11.2273 29.6985C11.9815 29.8385 12.2585 29.371 12.2585 28.9723C12.2585 28.6123 12.2445 27.423 12.238 26.1615C8.03802 27.0748 7.15177 24.3803 7.15177 24.3803C6.46502 22.6353 5.47552 22.1713 5.47552 22.1713C4.10552 21.2343 5.57877 21.2538 5.57877 21.2538C7.09452 21.36 7.89302 22.8095 7.89302 22.8095C9.23952 25.117 11.4248 24.45 12.2863 24.0645C12.4218 23.0888 12.813 22.4225 13.2448 22.0455C9.89152 21.6643 6.36627 20.3695 6.36627 14.5848C6.36627 12.9365 6.95627 11.5898 7.92202 10.5323C7.76502 10.1523 7.24827 8.61676 8.06802 6.53726C8.06802 6.53726 9.33552 6.13151 12.2205 8.08476C13.425 7.75001 14.7168 7.58176 16 7.57601C17.2825 7.58176 18.575 7.74951 19.7818 8.08426C22.6633 6.13101 23.9293 6.53676 23.9293 6.53676C24.751 8.61601 24.2343 10.1518 24.0775 10.5318C25.0455 11.5893 25.6313 12.936 25.6313 14.5843C25.6313 20.3828 22.0995 21.6593 18.7378 22.0333C19.2795 22.5018 19.762 23.4208 19.762 24.829C19.762 26.849 19.7445 28.4748 19.7445 28.972C19.7445 29.3738 20.0165 29.8445 20.7815 29.6963C26.7765 27.6978 31.0973 22.0408 31.0973 15.3728C31.097 7.03501 24.3375 0.276007 16 0.276007V0.275757Z" fill="#181616"/>
<path d="M6.62102 21.9515C6.58777 22.0265 6.46977 22.049 6.36227 21.9977C6.25227 21.9487 6.19102 21.8465 6.22652 21.7712C6.25902 21.6937 6.37727 21.6725 6.48652 21.7242C6.59652 21.7735 6.65902 21.8767 6.62077 21.9517L6.62102 21.9515ZM7.23252 22.6337C7.16077 22.7005 7.02002 22.6695 6.92452 22.5637C6.82552 22.4587 6.80702 22.318 6.88027 22.2502C6.95477 22.1837 7.09127 22.2152 7.19027 22.3202C7.28877 22.4267 7.30827 22.5662 7.23277 22.634L7.23252 22.6337ZM7.82802 23.503C7.73552 23.5675 7.58402 23.5072 7.49052 23.373C7.39802 23.2385 7.39802 23.0772 7.49302 23.013C7.58627 22.9485 7.73552 23.0067 7.83052 23.1397C7.92252 23.276 7.92252 23.4372 7.82802 23.5027V23.503ZM8.64327 24.3432C8.56077 24.4345 8.38427 24.41 8.25527 24.2857C8.12352 24.164 8.08677 23.9907 8.16952 23.8997C8.25352 23.8082 8.43077 23.8337 8.56052 23.9572C8.69227 24.0787 8.73202 24.2522 8.64377 24.343L8.64327 24.3432ZM9.76827 24.831C9.73152 24.9492 9.56202 25.003 9.39077 24.9525C9.22002 24.9007 9.10827 24.7625 9.14327 24.643C9.17827 24.5237 9.34902 24.468 9.52127 24.5217C9.69202 24.5732 9.80377 24.7107 9.76827 24.831ZM11.004 24.9212C11.0083 25.0457 10.8633 25.1487 10.684 25.1512C10.5033 25.1555 10.357 25.0545 10.3553 24.932C10.3553 24.8062 10.4973 24.7045 10.6778 24.701C10.857 24.6977 11.0043 24.7977 11.0043 24.921L11.004 24.9212ZM12.1535 24.7257C12.175 24.847 12.0503 24.9717 11.872 25.005C11.697 25.0375 11.5345 24.962 11.512 24.8417C11.4905 24.7172 11.6175 24.5925 11.7925 24.5602C11.971 24.5295 12.131 24.6027 12.1535 24.726V24.7257Z" fill="#181616"/>
</svg>
