<svg width="21" height="11" viewBox="0 0 21 11" fill="none" xmlns="http://www.w3.org/2000/svg">
<path d="M14.6241 6.16979C15.6928 5.54509 16.7586 4.9153 17.8309 4.29715C18.8487 3.71016 20.0462 4.25144 20.277 5.3936C20.4105 6.05431 20.1207 6.76808 19.5346 7.11572C17.613 8.25537 15.6887 9.3905 13.7548 10.5083C13.1562 10.8542 12.5397 10.7906 11.9942 10.3666C11.4401 9.93622 11.2654 9.34253 11.3954 8.65154C11.5438 8.12552 11.8833 7.77385 12.3465 7.51076C13.1121 7.07583 13.8655 6.61796 14.6241 6.16979Z" fill="url(#paint0_linear_16_288)"/>
<path d="M15.4087 5.71605C14.3427 5.08651 13.274 4.46189 12.2118 3.82597C11.2034 3.22227 11.0653 1.89616 11.9218 1.12158C12.4172 0.673653 13.1694 0.572147 13.7583 0.91494C15.6889 2.03877 17.6169 3.16736 19.535 4.31298C20.1286 4.66757 20.3827 5.24293 20.2948 5.9357C20.2056 6.63921 19.7878 7.08997 19.1348 7.321C18.613 7.45327 18.144 7.32972 17.6886 7.05306C16.9356 6.5956 16.1693 6.16051 15.4087 5.71605Z" fill="url(#paint1_linear_16_288)"/>
<path d="M5.69301 5.2707C5.00899 5.66623 4.32458 6.06102 3.6412 6.45776C3.24155 6.68984 2.84618 6.92983 2.44447 7.15804C1.63493 7.61792 0.673132 7.34837 0.214132 6.53835C-0.223921 5.76539 0.0278344 4.76326 0.807459 4.30006C2.71368 3.16768 4.62481 2.04353 6.54285 0.931898C7.1311 0.591043 7.74141 0.633923 8.28539 1.04148C8.85951 1.47164 9.04748 2.07696 8.91854 2.78653C8.83857 2.95829 8.7908 3.1596 8.67099 3.29486C8.47629 3.51491 8.25492 3.72559 8.00848 3.88032C7.24583 4.35893 6.46605 4.80937 5.69301 5.2707Z" fill="url(#paint2_linear_16_288)"/>
<path d="M4.90868 5.71383C5.5873 6.11888 6.26545 6.52482 6.9447 6.92874C7.34197 7.16502 7.74385 7.39347 8.1389 7.63339C8.93502 8.11709 9.18662 9.09952 8.72683 9.90906C8.28806 10.6817 7.30952 10.9609 6.52553 10.5053C4.60884 9.39128 2.69675 8.26899 0.791885 7.13418C0.207682 6.78614 -0.0609735 6.22677 0.013847 5.54352C0.0927934 4.82233 0.513867 4.35405 1.18217 4.11284C1.36823 4.09758 1.56342 4.03895 1.73845 4.0769C2.02305 4.1386 2.31305 4.22831 2.5679 4.36818C3.35649 4.80101 4.12961 5.26307 4.90868 5.71383Z" fill="url(#paint3_linear_16_288)"/>
<defs>
<linearGradient id="paint0_linear_16_288" x1="15.8318" y1="4.05786" x2="15.8318" y2="10.7313" gradientUnits="userSpaceOnUse">
<stop stop-color="#693B93" stop-opacity="0.53"/>
<stop offset="1" stop-color="#693B93"/>
</linearGradient>
<linearGradient id="paint1_linear_16_288" x1="15.835" y1="0.710571" x2="15.835" y2="7.37422" gradientUnits="userSpaceOnUse">
<stop stop-color="#693B93" stop-opacity="0.53"/>
<stop offset="1" stop-color="#693B93"/>
</linearGradient>
<linearGradient id="paint2_linear_16_288" x1="4.47866" y1="0.703125" x2="4.47866" y2="7.38181" gradientUnits="userSpaceOnUse">
<stop stop-color="#693B93" stop-opacity="0.53"/>
<stop offset="1" stop-color="#693B93"/>
</linearGradient>
<linearGradient id="paint3_linear_16_288" x1="4.47864" y1="4.06433" x2="4.47864" y2="10.725" gradientUnits="userSpaceOnUse">
<stop stop-color="#693B93" stop-opacity="0.53"/>
<stop offset="1" stop-color="#693B93"/>
</linearGradient>
</defs>
</svg>
