<svg width="21" height="20" viewBox="0 0 21 20" fill="none" xmlns="http://www.w3.org/2000/svg">
<path d="M20.0931 9.99877C20.0931 8.64396 18.4263 7.35987 15.8702 6.56403C16.4605 3.9132 16.1984 1.80345 15.0431 1.12775C14.7631 0.96817 14.4463 0.887846 14.1255 0.89513V1.8239C14.3139 1.8239 14.4654 1.86224 14.5926 1.93296C15.1494 2.25846 15.3914 3.49568 15.203 5.08822C15.1578 5.48018 15.0841 5.89259 14.9937 6.31352C14.1377 6.10359 13.269 5.95187 12.3933 5.85936C11.8716 5.12681 11.3024 4.43053 10.6896 3.77517C12.0249 2.51238 13.2782 1.82049 14.1305 1.82049V0.890869C13.0036 0.890869 11.5293 1.70802 10.0382 3.12503C8.54796 1.71739 7.07279 0.907911 5.94673 0.907911V1.83668C6.79483 1.83668 8.05233 2.52516 9.38769 3.77943C8.81419 4.39292 8.2407 5.08822 7.69568 5.85936C6.81814 5.95085 5.94787 6.10402 5.0911 6.31778C5.00055 5.91882 4.92931 5.51559 4.87761 5.10953C4.68505 3.51613 4.92282 2.27891 5.47622 1.95001C5.59845 1.87502 5.75836 1.84094 5.94673 1.84094V0.912171C5.60348 0.912171 5.2912 0.987154 5.02161 1.14479C3.87044 1.82049 3.61258 3.92513 4.20617 6.56829C1.65852 7.36925 0 8.64822 0 9.99877C0 11.3536 1.66689 12.6377 4.22291 13.4327C3.63267 16.0843 3.89472 18.1941 5.05008 18.8689C5.31631 19.0274 5.62776 19.1024 5.97101 19.1024C7.0979 19.1024 8.57224 18.2853 10.0633 16.8682C11.5536 18.2767 13.0279 19.0854 14.1548 19.0854C14.478 19.0923 14.7973 19.0117 15.0799 18.8519C16.2311 18.177 16.4889 16.0724 15.8954 13.4292C18.4346 12.6334 20.0931 11.3493 20.0931 9.99877ZM14.7601 7.21843C14.601 7.77557 14.4166 8.3249 14.2075 8.86465C13.8652 8.18704 13.4894 7.52753 13.0815 6.88867C13.6633 6.97644 14.2243 7.08465 14.7609 7.21843H14.7601ZM12.8847 11.6578C12.5781 12.2026 12.2488 12.734 11.8977 13.2503C10.6688 13.3605 9.43293 13.362 8.20386 13.2546C7.49889 12.2297 6.88235 11.1446 6.36116 10.0115C6.88155 8.87581 7.49547 7.78694 8.19633 6.7566C9.42485 6.64614 10.6605 6.64443 11.8893 6.75149C12.2292 7.2474 12.5616 7.77739 12.8805 8.33636C13.192 8.88169 13.475 9.43554 13.7328 9.99451C13.4721 10.5603 13.1892 11.1151 12.8847 11.6578ZM14.2075 11.1158C14.4286 11.674 14.6178 12.2329 14.7726 12.7748C14.2368 12.9086 13.6709 13.0211 13.0857 13.108C13.4919 12.4633 13.8663 11.7985 14.2075 11.1158ZM10.0549 15.5637C9.67401 15.1632 9.29308 14.7176 8.91633 14.2294C9.28471 14.2464 9.66146 14.2592 10.0424 14.2592C10.4275 14.2592 10.8084 14.2507 11.181 14.2294C10.8126 14.7176 10.4317 15.1632 10.0549 15.5637ZM7.00748 13.108C6.44299 13.0248 5.88257 12.915 5.32803 12.7791C5.47957 12.2414 5.66794 11.6867 5.88059 11.1329C6.04887 11.4652 6.22553 11.7992 6.41809 12.1332C6.61065 12.4664 6.80655 12.7919 7.00748 13.108ZM10.034 4.43382C10.4149 4.8343 10.7959 5.27994 11.1726 5.76818C10.8043 5.75114 10.4275 5.73836 10.0466 5.73836C9.66146 5.73836 9.28052 5.74688 8.90796 5.76818C9.27634 5.27994 9.65727 4.8343 10.034 4.43382ZM7.0033 6.88952C6.59714 7.53279 6.22272 8.19625 5.88143 8.87743C5.66645 8.33419 5.47785 7.78052 5.31631 7.21843C5.85213 7.08891 6.41809 6.97644 7.0033 6.88952ZM3.29695 12.1077C1.8469 11.4788 0.909215 10.6532 0.909215 9.99877C0.909215 9.34437 1.8469 8.51444 3.29695 7.88987C3.64858 7.73564 4.0337 7.5976 4.43138 7.46894C4.66496 8.28523 4.97222 9.13561 5.35231 10.0073C4.99345 10.8271 4.68996 11.671 4.44393 12.5329C4.05501 12.4103 3.67222 12.2684 3.29695 12.1077ZM5.5005 18.0637C4.94375 17.7399 4.7018 16.501 4.89017 14.9093C4.93538 14.5174 5.00905 14.1041 5.09947 13.6832C5.90153 13.8834 6.77809 14.0376 7.69986 14.1382C8.22159 14.8707 8.79077 15.567 9.40359 16.2224C8.06824 17.4852 6.81493 18.177 5.96264 18.177C5.80185 18.1788 5.64311 18.1402 5.5005 18.0646V18.0637ZM15.2155 14.888C15.4081 16.4806 15.1703 17.7186 14.6169 18.0475C14.4947 18.1225 14.3348 18.1557 14.1464 18.1557C13.2983 18.1557 12.0408 17.4681 10.7055 16.213C11.3157 15.5604 11.8811 14.8657 12.3975 14.1339C13.275 14.0424 14.1453 13.8893 15.002 13.6755C15.0967 14.0964 15.1695 14.5003 15.2155 14.888ZM16.792 12.1077C16.4404 12.2619 16.0553 12.3999 15.6576 12.5286C15.4072 11.6623 15.0996 10.8142 14.7366 9.99025C15.1134 9.12368 15.4156 8.27756 15.645 7.46468C16.0352 7.58765 16.4194 7.72954 16.7962 7.88987C18.2463 8.5187 19.1839 9.34437 19.1839 9.99877C19.1797 10.6532 18.2421 11.4831 16.792 12.1077Z" fill="url(#paint0_linear_16_276)"/>
<path d="M10.0424 11.9025C10.5389 11.9025 11.0151 11.7018 11.3661 11.3446C11.7172 10.9874 11.9144 10.5029 11.9144 9.99776C11.9144 9.49259 11.7172 9.00811 11.3661 8.6509C11.0151 8.29369 10.5389 8.09302 10.0424 8.09302C9.54593 8.09302 9.06978 8.29369 8.71871 8.6509C8.36764 9.00811 8.17041 9.49259 8.17041 9.99776C8.17041 10.5029 8.36764 10.9874 8.71871 11.3446C9.06978 11.7018 9.54593 11.9025 10.0424 11.9025Z" fill="url(#paint1_linear_16_276)"/>
<defs>
<linearGradient id="paint0_linear_16_276" x1="10.0466" y1="0.890869" x2="10.0466" y2="19.1024" gradientUnits="userSpaceOnUse">
<stop stop-color="#693B93" stop-opacity="0.53"/>
<stop offset="1" stop-color="#693B93"/>
</linearGradient>
<linearGradient id="paint1_linear_16_276" x1="10.0424" y1="8.09302" x2="10.0424" y2="11.9025" gradientUnits="userSpaceOnUse">
<stop stop-color="#693B93" stop-opacity="0.53"/>
<stop offset="1" stop-color="#693B93"/>
</linearGradient>
</defs>
</svg>
