<svg width="14" height="14" viewBox="0 0 14 14" fill="none" xmlns="http://www.w3.org/2000/svg">
<path d="M11.3343 -0.00854492H2.25625C1.01016 -0.00854492 0 1.01955 0 2.28777V11.1813C0 12.4495 1.01016 13.4776 2.25625 13.4776H11.3343C12.5804 13.4776 13.5906 12.4495 13.5906 11.1813V2.28777C13.5906 1.01955 12.5804 -0.00854492 11.3343 -0.00854492Z" fill="url(#paint0_linear_16_285)"/>
<path d="M7.14449 3.53888L5.4487 6.38755L7.26299 9.41247C7.27467 9.43365 7.2779 9.4585 7.27212 9.48206C7.2693 9.49211 7.26325 9.49459 7.25396 9.49497L7.24366 9.49481L7.23113 9.49449C7.22434 9.49449 7.21675 9.49481 7.20831 9.49621H5.90021L5.87452 9.49578C5.80402 9.49389 5.75321 9.48362 5.72226 9.431C5.60123 9.19102 5.47965 8.95132 5.35755 8.7119C5.24832 8.49836 5.13612 8.28641 5.02097 8.07612L4.97011 7.98351C4.83238 7.73439 4.69714 7.48385 4.56441 7.23194H4.55528C4.4327 7.48122 4.30657 7.72867 4.17692 7.97422C4.04616 8.22168 3.917 8.46763 3.78943 8.7119C3.66178 8.95637 3.53111 9.19919 3.39743 9.44029C3.37592 9.48946 3.3402 9.49973 3.29045 9.5014L3.26975 9.50173H2.02074L2.01533 9.50189L1.99749 9.50351C1.98756 9.5041 1.98162 9.50194 1.97971 9.48671C1.97628 9.46408 1.98116 9.44096 1.9934 9.42176L3.75296 6.48032L2.03895 3.52969C2.02074 3.50505 2.01772 3.48495 2.02982 3.46939C2.03655 3.46147 2.045 3.45524 2.0545 3.45121C2.064 3.44718 2.07429 3.44545 2.08456 3.44616H3.37003C3.39807 3.4446 3.42609 3.44936 3.45211 3.4601C3.47387 3.47269 3.49261 3.49014 3.50679 3.51116C3.6162 3.75862 3.73777 4.00608 3.8715 4.25344C4.00419 4.49923 4.13944 4.74359 4.2772 4.98647C4.41286 5.2256 4.53908 5.47014 4.65556 5.71951H4.66469C4.78407 5.4702 4.90716 5.22274 5.03392 4.97723C5.15841 4.73599 5.28609 4.49312 5.41679 4.24879C5.54584 4.0076 5.67197 3.7648 5.79515 3.52045C5.80216 3.49754 5.81469 3.4768 5.83162 3.4601C5.85414 3.4485 5.87945 3.44366 5.90457 3.44616H7.09889C7.10987 3.44337 7.12144 3.44429 7.13187 3.44878C7.14229 3.45326 7.151 3.46107 7.15669 3.47103C7.16238 3.48098 7.16473 3.49255 7.1634 3.50399C7.16208 3.51542 7.15714 3.52611 7.14933 3.53445L7.14455 3.53899L7.14449 3.53888ZM9.82385 9.61589L9.761 9.6166C9.34135 9.6231 8.92556 9.53436 8.54384 9.35681C8.18825 9.18931 7.891 8.91589 7.69141 8.57272C7.49015 8.23254 7.38684 7.80861 7.38164 7.3011L7.38143 7.25977C7.37801 6.8339 7.48495 6.41464 7.69146 6.04424C7.89814 5.67762 8.19945 5.37556 8.56274 5.17077L8.59401 5.15348C8.98899 4.93077 9.46614 4.81941 10.0254 4.81941L10.0498 4.81968L10.0777 4.8206L10.109 4.822L10.1439 4.82406L10.2024 4.82827L10.2686 4.83367L10.3171 4.838V3.01002C10.3171 2.9668 10.3354 2.94508 10.3718 2.94508H11.5205C11.528 2.94399 11.5356 2.94469 11.5427 2.9471C11.5498 2.94951 11.5563 2.95358 11.5616 2.95898C11.5669 2.96438 11.5709 2.97097 11.5732 2.97821C11.5756 2.98546 11.5763 2.99317 11.5752 3.00073V8.48459C11.5752 8.57666 11.5787 8.67586 11.5857 8.78198L11.6027 9.02269L11.6118 9.16193C11.6129 9.18121 11.6083 9.20039 11.5985 9.21695C11.5887 9.23351 11.5743 9.24669 11.557 9.25475C11.2607 9.38053 10.952 9.47383 10.6362 9.53306C10.3681 9.58342 10.0964 9.61113 9.82385 9.61589ZM10.3171 8.46601V5.93288C10.2678 5.9193 10.2175 5.90999 10.1667 5.90505C10.1046 5.89869 10.0422 5.89559 9.97977 5.89576C9.75854 5.89353 9.53991 5.9444 9.3416 6.04424C9.14844 6.14195 8.98352 6.28903 8.86296 6.47108C8.74261 6.65025 8.68033 6.8842 8.67625 7.17294L8.67603 7.20412C8.6716 7.40637 8.70405 7.60771 8.77175 7.79792C8.82686 7.95121 8.91398 8.09051 9.02711 8.20623C9.13536 8.31267 9.26643 8.39208 9.40998 8.43818C9.56161 8.48816 9.7201 8.51324 9.87949 8.51247C9.96454 8.51247 10.0435 8.50934 10.1165 8.50313C10.1747 8.49867 10.2325 8.48891 10.289 8.47395L10.3171 8.46601Z" fill="black"/>
<defs>
<linearGradient id="paint0_linear_16_285" x1="6.79528" y1="-0.00854492" x2="6.79528" y2="13.4776" gradientUnits="userSpaceOnUse">
<stop stop-color="#693B93" stop-opacity="0.53"/>
<stop offset="1" stop-color="#693B93"/>
</linearGradient>
</defs>
</svg>
