<svg width="11" height="17" viewBox="0 0 11 17" fill="none" xmlns="http://www.w3.org/2000/svg">
<path fill-rule="evenodd" clip-rule="evenodd" d="M3.03533 0.0216064C1.35303 0.0216064 4.36592e-05 1.4581 4.36592e-05 3.21785C4.36592e-05 4.28769 0.50054 5.23789 1.26985 5.81794C0.873353 6.12028 0.551971 6.51294 0.33146 6.96447C0.110949 7.416 -0.00255571 7.91382 4.36592e-05 8.41804C4.36592e-05 9.48858 0.50054 10.4381 1.26985 11.0181C0.873353 11.3205 0.551971 11.7131 0.33146 12.1647C0.110949 12.6162 -0.00255571 13.114 4.36592e-05 13.6182C4.36592e-05 15.378 1.35303 16.8145 3.03533 16.8145C4.71694 16.8145 6.07062 15.378 6.07062 13.6182V10.916C6.60228 11.3671 7.27244 11.6145 7.96466 11.615C9.64696 11.6143 10.9999 10.1778 10.9999 8.41804C11.0027 7.91379 10.8893 7.41591 10.6688 6.96436C10.4482 6.5128 10.1268 6.12016 9.73015 5.81794C10.1266 5.51561 10.448 5.12294 10.6685 4.67142C10.889 4.21989 11.0025 3.72207 10.9999 3.21785C10.9999 1.4581 9.64696 0.0216064 7.96466 0.0216064H3.03533ZM1.1406 3.21785C1.1406 2.10462 1.99446 1.2132 3.03533 1.2132H4.92938V5.2225H3.03533C1.99446 5.2225 1.1406 4.33038 1.1406 3.21785ZM7.96466 5.2218H6.07062V1.2125H7.96466C9.00622 1.2125 9.8594 2.10462 9.8594 3.21785C9.8594 4.33038 9.00622 5.2218 7.96466 5.2218ZM1.14128 8.41804C1.14128 7.30551 1.99515 6.41339 3.03602 6.41339H4.93006V10.4227H3.03533C1.99378 10.4227 1.1406 9.53057 1.1406 8.41804H1.14128ZM6.07062 8.41804C6.07062 7.30551 6.92449 6.41339 7.96535 6.41339C9.00691 6.41339 9.86008 7.30481 9.86008 8.41804C9.86008 9.53057 9.00691 10.4227 7.96535 10.4227C6.92449 10.4227 6.07131 9.53127 6.07131 8.41804H6.07062ZM1.14128 13.6182C1.14128 12.5057 1.99515 11.6143 3.03602 11.6143H4.93006V13.6182C4.93006 14.7315 4.07757 15.6229 3.03602 15.6229C1.99515 15.6229 1.14128 14.7315 1.14128 13.6182Z" fill="url(#paint0_linear_16_282)"/>
<defs>
<linearGradient id="paint0_linear_16_282" x1="5.5" y1="0.0216064" x2="5.5" y2="16.8145" gradientUnits="userSpaceOnUse">
<stop stop-color="#693B93" stop-opacity="0.53"/>
<stop offset="1" stop-color="#693B93"/>
</linearGradient>
</defs>
</svg>
