<svg width="13" height="19" viewBox="0 0 13 19" fill="none" xmlns="http://www.w3.org/2000/svg">
<path d="M3.21173 0.469604H5.10105V1.28766H4.00176V2.10572H5.10105V2.92378H3.21173V0.469604ZM5.47847 0.469604H7.36852V1.18142H6.26923V1.32333H7.36852V2.95945H5.47847V2.21272H6.57776V2.07005H5.47847V0.469604ZM7.74668 0.469604H9.63526V1.18142H8.53597V1.32333H9.63526V2.95945H7.74668V2.21272H8.84597V2.07005H7.74668V0.469604Z" fill="url(#paint0_linear_16_294)"/>
<path fill-rule="evenodd" clip-rule="evenodd" d="M6.4935 18.214L1.47839 16.7977L0 4.04919H13L11.5223 16.7963L6.4935 18.214ZM2.92283 9.82001L3.06078 11.3832H8.38861L8.21022 13.4106L6.49567 13.8822H6.49422L4.78256 13.4121L4.67278 12.1655H3.12939L3.34461 14.6205L6.4935 15.5093L9.64744 14.6205L10.0317 10.2394L10.0692 9.82001L10.3466 6.65473H2.64622L2.78633 8.21864H8.66233L8.52222 9.82001H2.92283Z" fill="url(#paint1_linear_16_294)"/>
<defs>
<linearGradient id="paint0_linear_16_294" x1="6.4235" y1="0.469604" x2="6.4235" y2="2.95945" gradientUnits="userSpaceOnUse">
<stop stop-color="#693B93" stop-opacity="0.53"/>
<stop offset="1" stop-color="#693B93"/>
</linearGradient>
<linearGradient id="paint1_linear_16_294" x1="6.5" y1="4.04919" x2="6.5" y2="18.214" gradientUnits="userSpaceOnUse">
<stop stop-color="#693B93" stop-opacity="0.53"/>
<stop offset="1" stop-color="#693B93"/>
</linearGradient>
</defs>
</svg>
