<svg width="12" height="13" viewBox="0 0 12 13" fill="none" xmlns="http://www.w3.org/2000/svg">
<path d="M0.501 0.658887H11.5007V12.42H0.501V0.658887ZM0 12.9698H12V0.109131H0V12.9698ZM7.86 4.69279C7.86 4.64898 7.875 4.62684 7.92 4.62684H8.70514C8.745 4.62684 8.76514 4.64332 8.76514 4.69279V9.02913C8.76514 9.07294 8.75529 9.09508 8.70514 9.09508H7.93071C7.88057 9.09508 7.86557 9.06776 7.86557 9.02347V4.69279H7.86043H7.86ZM7.80514 3.44536C7.80514 3.29668 7.85887 3.15409 7.95452 3.04896C8.05016 2.94383 8.17988 2.88476 8.31514 2.88476C8.4504 2.88476 8.58012 2.94383 8.67577 3.04896C8.77141 3.15409 8.82514 3.29668 8.82514 3.44536C8.83009 3.52131 8.81995 3.59753 8.79543 3.66875C8.77091 3.73996 8.7326 3.80447 8.68315 3.85779C8.6337 3.91112 8.57429 3.95199 8.50905 3.97757C8.4438 4.00315 8.37428 4.01283 8.30529 4.00595C8.23769 4.01061 8.16998 3.9992 8.10675 3.97251C8.04353 3.94582 7.98628 3.90447 7.9389 3.85128C7.89152 3.79808 7.85513 3.73429 7.83219 3.66424C7.80926 3.59419 7.80033 3.51954 7.806 3.44536H7.80514ZM5.55514 6.50128C5.415 5.88887 5.08371 4.56136 4.96029 3.91832H4.95043C4.84543 4.56136 4.58057 5.64956 4.37057 6.50128H5.55514ZM4.16529 7.39163L3.77014 9.04043C3.76029 9.08424 3.74529 9.09555 3.69514 9.09555H2.961C2.91086 9.09555 2.901 9.07906 2.91086 9.01311L4.33071 3.54852C4.36527 3.39954 4.38213 3.24626 4.38086 3.09251C4.38086 3.05388 4.39586 3.0374 4.42071 3.0374H5.47071C5.50586 3.0374 5.52086 3.04823 5.53071 3.09251L7.12071 9.02253C7.13057 9.06634 7.12071 9.09414 7.08086 9.09414H6.25071C6.21086 9.09414 6.18557 9.0833 6.17571 9.04703L5.76557 7.39258H4.16571L4.16529 7.39163Z" fill="url(#paint0_linear_16_297)"/>
<defs>
<linearGradient id="paint0_linear_16_297" x1="6" y1="0.109131" x2="6" y2="12.9698" gradientUnits="userSpaceOnUse">
<stop stop-color="#693B93" stop-opacity="0.53"/>
<stop offset="1" stop-color="#693B93"/>
</linearGradient>
</defs>
</svg>
