<svg width="13" height="14" viewBox="0 0 13 14" fill="none" xmlns="http://www.w3.org/2000/svg">
<path fill-rule="evenodd" clip-rule="evenodd" d="M1.55495e-07 1.76757C1.55495e-07 1.47856 0.110678 1.20139 0.307685 0.997028C0.504692 0.792667 0.771891 0.677858 1.0505 0.677858H11.5224C11.6604 0.677624 11.7972 0.705642 11.9248 0.760308C12.0524 0.814974 12.1684 0.895214 12.2661 0.996435C12.3638 1.09766 12.4413 1.21787 12.4941 1.35019C12.5469 1.48251 12.5741 1.62435 12.574 1.76757V12.6304C12.5742 12.7736 12.5471 12.9155 12.4943 13.0479C12.4416 13.1803 12.3642 13.3006 12.2665 13.4019C12.1689 13.5032 12.053 13.5836 11.9254 13.6384C11.7978 13.6932 11.661 13.7213 11.5229 13.7213H1.0505C0.9125 13.7213 0.77585 13.693 0.64836 13.6382C0.52087 13.5834 0.405038 13.5031 0.307483 13.4019C0.209927 13.3006 0.13256 13.1804 0.0798007 13.0481C0.0270417 12.9159 -7.49272e-05 12.7741 1.55495e-07 12.6309V1.76757ZM4.97702 5.65095H6.67966V6.5379C6.92542 6.02802 7.55412 5.56913 8.49889 5.56913C10.3101 5.56913 10.7393 6.58474 10.7393 8.44817V11.8999H8.9064V8.87267C8.9064 7.81141 8.66064 7.2126 8.03651 7.2126C7.17062 7.2126 6.81054 7.85825 6.81054 8.87267V11.8999H4.97702V5.65095ZM1.83352 11.8187H3.66704V5.56913H1.83352V11.8181V11.8187ZM3.92938 3.5308C3.93284 3.69365 3.9049 3.85558 3.84721 4.00708C3.78953 4.15857 3.70325 4.29659 3.59344 4.41303C3.48364 4.52947 3.35252 4.62199 3.20778 4.68515C3.06304 4.74831 2.90759 4.78085 2.75057 4.78085C2.59354 4.78085 2.43809 4.74831 2.29335 4.68515C2.14861 4.62199 2.01749 4.52947 1.90769 4.41303C1.79788 4.29659 1.7116 4.15857 1.65392 4.00708C1.59623 3.85558 1.56829 3.69365 1.57175 3.5308C1.57854 3.21116 1.70571 2.90697 1.92604 2.68339C2.14638 2.45981 2.44234 2.33462 2.75057 2.33462C3.05879 2.33462 3.35475 2.45981 3.57509 2.68339C3.79542 2.90697 3.92259 3.21116 3.92938 3.5308Z" fill="url(#paint0_linear_16_299)"/>
<defs>
<linearGradient id="paint0_linear_16_299" x1="6.28701" y1="0.677856" x2="6.28701" y2="13.7213" gradientUnits="userSpaceOnUse">
<stop stop-color="#693B93" stop-opacity="0.53"/>
<stop offset="1" stop-color="#693B93"/>
</linearGradient>
</defs>
</svg>
