<svg width="32" height="32" viewBox="0 0 32 32" fill="none" xmlns="http://www.w3.org/2000/svg">
<path d="M14.5 14.8817L7.1485 8.65924C6.74678 8.32352 6.25515 8.11343 5.73487 8.05515C5.21459 7.99688 4.68866 8.09299 4.22262 8.33151C3.75658 8.57004 3.37103 8.94043 3.11402 9.39653C2.857 9.85264 2.73988 10.3743 2.77725 10.8965C2.81487 11.4189 3.00555 11.9187 3.32549 12.3335C3.64543 12.7482 4.08046 13.0595 4.57625 13.2285H4.6025L4.67175 13.25L13.9453 16.0742C14.0118 16.0987 14.083 16.1112 14.1543 16.1122C14.2984 16.1113 14.4383 16.0636 14.5528 15.9761C14.6673 15.8887 14.7503 15.7663 14.7891 15.6275C14.828 15.4888 14.8205 15.3411 14.768 15.2069C14.7155 15.0727 14.6207 14.9593 14.498 14.8837L14.5 14.8817Z" fill="url(#paint0_linear_116_1504)"/>
<path d="M15.9738 4.6095C15.9757 4.25955 15.8828 3.91561 15.7049 3.61423C15.527 3.31286 15.2708 3.06532 14.9635 2.89792C14.6561 2.73052 14.3092 2.64953 13.9595 2.66354C13.6098 2.67755 13.2705 2.78605 12.9775 2.9775L4.00002 8.4285C3.59177 8.69437 3.26422 9.06707 3.05296 9.50607C2.8417 9.94507 2.75482 10.4336 2.80177 10.9185C2.84881 11.4033 3.02768 11.866 3.31901 12.2564C3.61033 12.6467 4.00298 12.9499 4.45436 13.1329C4.90574 13.316 5.39863 13.3719 5.87956 13.2947C6.36049 13.2175 6.8111 13.0101 7.18252 12.695L15.2305 6.1365L15.294 6.08375C15.5068 5.90142 15.6777 5.67528 15.795 5.42079C15.9124 5.16631 15.9733 4.88948 15.9738 4.60925V4.6095Z" fill="url(#paint1_linear_116_1504)"/>
<path d="M29.0292 16.3555L15.4083 3.2373C15.1616 2.98993 14.8528 2.81372 14.5143 2.72726C14.1758 2.64079 13.8203 2.64729 13.4853 2.74605C13.1502 2.84495 12.8481 3.03245 12.6108 3.28876C12.3734 3.54506 12.2097 3.86067 12.1368 4.2023C12.0641 4.54414 12.0851 4.89926 12.1975 5.23016C12.31 5.56105 12.5096 5.85546 12.7755 6.0823L12.7998 6.10355L27.2715 18.295C27.4624 18.4552 27.695 18.5575 27.942 18.5901C28.189 18.6226 28.4402 18.5839 28.666 18.4785C28.8917 18.3729 29.0826 18.205 29.2164 17.9947C29.3501 17.7844 29.4211 17.5403 29.421 17.291C29.4206 17.117 29.3858 16.9447 29.3185 16.7842C29.2513 16.6236 29.153 16.478 29.0292 16.3555Z" fill="url(#paint2_linear_116_1504)"/>
<path d="M29.422 17.296C29.4237 17.0543 29.3584 16.8168 29.2332 16.61C29.108 16.4032 28.9279 16.2352 28.713 16.1247C28.498 16.0142 28.2565 15.9654 28.0155 15.9839C27.7745 16.0024 27.5433 16.0875 27.3478 16.2295L10.8663 24.282C10.5375 24.4471 10.2464 24.6784 10.0114 24.9614C9.77631 25.2444 9.60235 25.573 9.50041 25.9265C9.39848 26.28 9.37078 26.6507 9.41906 27.0154C9.46734 27.3801 9.59055 27.7309 9.78094 28.0457C9.97134 28.3605 10.2248 28.6325 10.5254 28.8446C10.826 29.0567 11.1672 29.2043 11.5276 29.2781C11.888 29.352 12.2598 29.3505 12.6196 29.2737C12.9794 29.1969 13.3194 29.0465 13.6183 28.832L28.8583 18.371C29.0324 18.251 29.1747 18.0905 29.2729 17.9032C29.3711 17.7159 29.4221 17.5075 29.4218 17.296H29.422Z" fill="url(#paint3_linear_116_1504)"/>
<path d="M10.667 10.667H21.333V21.333H10.667V10.667Z" fill="black"/>
<path d="M11.8272 19.333H15.8272V20H11.8272V19.333ZM11.66 13.417L11.957 13.1358C12.0145 13.2265 12.1112 13.2843 12.2187 13.291C12.332 13.291 12.4072 13.211 12.4072 13.0558V12.004H12.8662V13.0595C12.873 13.1446 12.8618 13.2302 12.8336 13.3107C12.8054 13.3913 12.7606 13.465 12.7022 13.5273C12.6418 13.5861 12.5702 13.6321 12.4917 13.6627C12.4131 13.6932 12.3292 13.7076 12.245 13.705C12.1312 13.7093 12.0182 13.6852 11.9161 13.6349C11.814 13.5847 11.7259 13.5098 11.66 13.417V13.417ZM13.0725 12.004H14.4112V12.3925H13.5212V12.6475H14.3202V13.003H13.5292V13.2675H14.418V13.6583H13.0665L13.0725 12.004ZM15.0635 12.4073H14.5655V12.004H16.0245V12.4073H15.5255V13.668H15.0635V12.4073ZM11.8457 14.325H12.6307C12.7123 14.3184 12.7943 14.328 12.8722 14.3533C12.95 14.3786 13.022 14.4191 13.084 14.4725C13.1562 14.545 13.1952 14.6415 13.1932 14.7433C13.1942 14.8242 13.17 14.9035 13.1238 14.97C13.0777 15.0365 13.0119 15.0869 12.9357 15.1143C13.1307 15.1505 13.2705 15.3233 13.2657 15.5215C13.2657 15.8223 13.0332 16 12.6347 16H11.8457V14.325ZM12.7342 14.8388C12.7342 14.747 12.6592 14.6973 12.5242 14.6973H12.295V14.9883H12.5175C12.6562 14.9883 12.7375 14.9405 12.7375 14.8448L12.7342 14.8388ZM12.5742 15.3115H12.295V15.619H12.583C12.7255 15.619 12.8037 15.5645 12.8037 15.4668C12.7997 15.372 12.7325 15.3118 12.578 15.3118L12.5742 15.3115ZM13.413 14.325H14.1512C14.3487 14.3095 14.5437 14.373 14.6932 14.503C14.794 14.6065 14.8477 14.747 14.8407 14.8905C14.844 15.0011 14.8128 15.11 14.7514 15.202C14.6901 15.2941 14.6016 15.3648 14.4982 15.4043L14.8962 16H14.362L14.026 15.495H13.8717V16H13.41L13.413 14.325ZM14.124 15.125C14.2792 15.125 14.373 15.0488 14.373 14.9258C14.373 14.793 14.2755 14.7258 14.123 14.7258H13.876V15.129L14.124 15.125Z" fill="white"/>
<path d="M15.4825 14.3125H15.9268L16.6388 15.9913H16.1425L16.0235 15.6905H15.378L15.2588 16H14.7775L15.4825 14.3125ZM15.8875 15.332L15.7013 14.8603L15.5128 15.332H15.8875ZM16.711 14.3203H17.1728V15.9853H16.711V14.3203ZM17.3438 14.3203H17.7773L18.377 15.209V14.32H18.834V15.985H18.4308L17.8025 15.0725V15.9855H17.3435L17.3438 14.3203ZM18.91 15.7383L19.166 15.4308C19.3159 15.5563 19.5039 15.6271 19.6993 15.6318C19.8263 15.6318 19.8918 15.588 19.8918 15.5168C19.8918 15.4433 19.838 15.4083 19.6093 15.3545C19.253 15.2725 18.9815 15.1768 18.9815 14.834C18.9815 14.5245 19.2265 14.3008 19.627 14.3008C19.8742 14.2915 20.1168 14.37 20.3115 14.5225L20.089 14.8388C19.9544 14.7374 19.7915 14.6804 19.623 14.6758C19.5108 14.6758 19.456 14.7198 19.456 14.7823C19.456 14.8585 19.5128 14.8925 19.746 14.9443C20.128 15.0273 20.3643 15.1523 20.3643 15.463C20.3643 15.8028 20.0958 15.996 19.6925 15.996C19.409 16.0088 19.1306 15.9172 18.91 15.7385V15.7383Z" fill="white"/>
<defs>
<linearGradient id="paint0_linear_116_1504" x1="5.80266" y1="10.8729" x2="14.7146" y2="15.2071" gradientUnits="userSpaceOnUse">
<stop offset="0.21" stop-color="#FE2857"/>
<stop offset="1" stop-color="#293896"/>
</linearGradient>
<linearGradient id="paint1_linear_116_1504" x1="3.0898" y1="12.4195" x2="14.7467" y2="3.77422" gradientUnits="userSpaceOnUse">
<stop stop-color="#FE2857"/>
<stop offset="0.01" stop-color="#FE2857"/>
<stop offset="0.86" stop-color="#FF318C"/>
</linearGradient>
<linearGradient id="paint2_linear_116_1504" x1="13.1858" y1="3.83649" x2="28.4924" y2="17.7351" gradientUnits="userSpaceOnUse">
<stop offset="0.02" stop-color="#FF318C"/>
<stop offset="0.21" stop-color="#FE2857"/>
<stop offset="0.86" stop-color="#FDB60D"/>
</linearGradient>
<linearGradient id="paint3_linear_116_1504" x1="27.6373" y1="15.9644" x2="9.79021" y2="28.2489" gradientUnits="userSpaceOnUse">
<stop offset="0.01" stop-color="#FDB60D"/>
<stop offset="0.86" stop-color="#FCF84A"/>
</linearGradient>
</defs>
</svg>
