<svg width="32" height="32" viewBox="0 0 32 32" fill="none" xmlns="http://www.w3.org/2000/svg">
<path d="M1.66202 16.838C1.66202 17.8155 1.57127 18.1337 1.33802 18.368C1.07902 18.5705 0.742267 18.6817 0.392517 18.6817L0.483517 19.2402C1.02452 19.246 1.54977 19.081 1.96002 18.7762C2.18077 18.5437 2.34477 18.2762 2.44252 17.9882C2.53969 17.7031 2.56938 17.3993 2.52927 17.1007V13.402H1.66202V16.838ZM8.13277 16.3975C8.13277 16.8165 8.13277 17.1905 8.17102 17.5147H7.40052L7.34877 16.8497C7.18752 17.0847 6.95702 17.2792 6.68077 17.4122C6.39843 17.5474 6.08848 17.6148 5.77552 17.6092C5.02452 17.6092 4.13077 17.2577 4.13077 15.8222V13.4365H4.99902V15.671C4.99902 16.4472 5.27727 16.9667 6.06052 16.9667C6.22073 16.9688 6.38007 16.9428 6.53127 16.8897C6.67709 16.8389 6.81221 16.7614 6.92977 16.6612C7.04091 16.5663 7.131 16.4492 7.19427 16.3175C7.25526 16.1908 7.28606 16.0518 7.28427 15.9112V13.4082H8.15127V16.375L8.13277 16.3975ZM9.77752 14.7657C9.77752 14.246 9.77752 13.8212 9.73827 13.4365H10.5158L10.5538 14.1347C10.7275 13.8817 10.9765 13.6747 11.2755 13.5352C11.5804 13.3942 11.9144 13.3276 12.25 13.3407C13.4033 13.3407 14.2705 14.1737 14.2705 15.4132C14.2705 16.877 13.2285 17.6035 12.1015 17.6035C11.8157 17.6151 11.531 17.562 11.2685 17.4482C11.0118 17.3357 10.792 17.168 10.6318 16.9607V19.1952H9.77752V14.7657ZM10.6318 15.8545C10.6338 15.956 10.6475 16.0575 10.671 16.1562C10.7443 16.4042 10.911 16.624 11.1455 16.7812C11.38 16.9385 11.669 17.0225 11.9658 17.0225C12.879 17.0225 13.416 16.38 13.416 15.4475C13.416 14.6317 12.911 13.9335 11.998 13.9335C11.6368 13.959 11.2988 14.0967 11.047 14.3222C10.796 14.5477 10.6475 14.8437 10.632 15.1562L10.6318 15.8545ZM15.8165 13.4325L16.8595 15.84C16.9703 16.1137 17.0715 16.3912 17.163 16.672C17.254 16.4267 17.3505 16.1132 17.468 15.8232L18.413 13.4325H19.3263L18.0313 16.337C17.3838 17.7335 16.9883 18.454 16.3925 18.8895C16.0928 19.127 15.7265 19.292 15.331 19.37L15.1173 18.745C15.389 18.6686 15.6453 18.5457 15.875 18.3817C16.1905 18.1592 16.4415 17.876 16.6065 17.5547C16.6413 17.5002 16.6655 17.4395 16.6778 17.376C16.6698 17.308 16.65 17.2419 16.6193 17.1807L14.8585 13.4207H15.8035L15.8165 13.4325ZM21.629 12.2607V13.4335H22.872V13.9922H21.629V16.1932C21.629 16.6962 21.7978 16.9862 22.2765 16.9862C22.4461 16.9885 22.6155 16.9715 22.7813 16.9355L22.8203 17.495C22.5703 17.5688 22.3103 17.6025 22.0498 17.5947C21.8775 17.6043 21.7049 17.5814 21.541 17.5272C21.3827 17.4755 21.2365 17.3922 21.1113 17.2822C20.8478 16.9775 20.7275 16.5987 20.7745 16.2207V13.9862H20.0363V13.4277H20.787V12.4335L21.629 12.2607ZM24.4708 15.6045C24.4533 15.794 24.4833 15.9845 24.5595 16.162C24.6389 16.3451 24.7592 16.5075 24.9113 16.6367C25.0675 16.7715 25.255 16.875 25.462 16.9405C25.668 17.0067 25.8895 17.0322 26.1085 17.0175C26.5496 17.027 26.9887 16.9549 27.4035 16.8047L27.5528 17.3632C27.0438 17.543 26.5064 17.6284 25.9668 17.6152C25.6493 17.6337 25.332 17.5927 25.0353 17.496C24.7453 17.4024 24.4773 17.2513 24.247 17.0517C24.0245 16.8565 23.8525 16.622 23.745 16.3642C23.6381 16.1103 23.5958 15.8338 23.622 15.5595C23.622 14.33 24.4708 13.3585 25.8565 13.3585C27.4103 13.3585 27.799 14.5312 27.799 15.2802C27.8065 15.3955 27.8065 15.5107 27.799 15.626H24.451L24.4708 15.6045ZM27.0088 15.046C27.034 14.8961 27.0216 14.7424 26.9728 14.5985C26.9213 14.4503 26.8364 14.316 26.7245 14.206C26.6065 14.0887 26.4656 13.9969 26.3105 13.9365C26.1495 13.8726 25.978 13.8395 25.8048 13.839C25.4493 13.8615 25.1153 13.997 24.87 14.2207C24.624 14.4432 24.4843 14.7372 24.4775 15.0457L27.0088 15.046ZM29.115 14.7022C29.115 14.2227 29.115 13.8085 29.0763 13.4287H29.8538V14.2275H29.8925C29.9738 13.9815 30.1425 13.7625 30.374 13.6025C30.6065 13.4425 30.8908 13.3487 31.1875 13.334C31.2685 13.3252 31.3515 13.3252 31.4335 13.334V14.0322C31.3345 14.0225 31.2348 14.0225 31.1358 14.0322C30.8418 14.042 30.5615 14.1435 30.3488 14.3182C30.1348 14.4932 30.003 14.7295 29.9765 14.9815C29.9523 15.0965 29.9395 15.212 29.9375 15.328V17.501H29.083V14.708L29.115 14.7022Z" fill="#4E4E4E"/>
<path d="M27.4415 1.82028C27.4574 2.19609 27.3626 2.56828 27.169 2.89078C26.976 3.21169 26.6922 3.46822 26.3535 3.62803C26.0154 3.78676 25.6376 3.84074 25.2685 3.78303C24.8989 3.72542 24.5548 3.55891 24.2803 3.30478C24.0046 3.0491 23.8105 2.71776 23.7222 2.35225C23.634 1.98674 23.6556 1.60333 23.7843 1.25003C23.9116 0.897427 24.1402 0.590311 24.4415 0.367281C24.7422 0.145331 25.1022 0.0181533 25.4755 0.00203108C25.7232 -0.00840679 25.9705 0.0303147 26.2032 0.115961C26.4358 0.201607 26.6492 0.332481 26.831 0.501031C27.2001 0.842839 27.4192 1.31667 27.4405 1.81928L27.4415 1.82028Z" fill="#767677"/>
<path d="M16.4395 24.1975C11.415 24.1975 7.02724 22.3565 4.74799 19.6307C5.59315 22.0712 7.17425 24.1897 9.27349 25.6942C11.3639 27.1919 13.8709 27.9975 16.4425 27.9979C19.0139 27.997 21.5206 27.1915 23.6112 25.6942C25.7101 24.1898 27.2906 22.0712 28.1347 19.6307C25.8515 22.3565 21.4637 24.1975 16.4395 24.1975ZM16.4375 6.4707C21.462 6.4707 25.8505 8.31245 28.129 11.037C27.2838 8.59652 25.7027 6.47818 23.6035 4.9737C21.5133 3.47602 19.0068 2.67002 16.4355 2.6687C13.8641 2.67002 11.3577 3.47602 9.26749 4.9737C7.168 6.47776 5.58696 8.59626 4.74249 11.037C7.02549 8.31745 11.413 6.4707 16.4375 6.4707Z" fill="#F37726"/>
<path d="M9.54103 29.496C9.56163 29.9698 9.44243 30.4392 9.19828 30.8458C8.95566 31.2503 8.59806 31.5735 8.17107 31.774C7.74408 31.9746 7.26704 32.0434 6.80078 31.9718C6.33453 31.8997 5.90073 31.6891 5.55578 31.3673C5.20937 31.0449 4.9652 30.6279 4.85353 30.168C4.74328 29.7064 4.77048 29.2226 4.93178 28.7763C5.09356 28.3314 5.38297 27.9442 5.76378 27.663C6.20731 27.3371 6.75058 27.176 7.3001 27.2073C7.84961 27.2387 8.371 27.4607 8.77453 27.835C9.23886 28.2665 9.51428 28.8637 9.54103 29.497V29.496Z" fill="#9E9E9E"/>
<path d="M5.32128 5.85452C5.0451 5.86653 4.77167 5.79547 4.53628 5.65052C4.2993 5.50526 4.11066 5.29306 3.99418 5.04069C3.87769 4.78832 3.83858 4.5071 3.88178 4.23252C3.92326 3.95723 4.04571 3.70051 4.23353 3.49502C4.41968 3.29044 4.66233 3.14567 4.93078 3.07902C5.19904 3.01201 5.48133 3.02805 5.74028 3.12502C6.00016 3.22076 6.22535 3.39223 6.38678 3.61727C6.57741 3.8806 6.67156 4.20153 6.6534 4.52611C6.63523 4.85069 6.50586 5.15911 6.28703 5.39952C6.16389 5.53542 6.01507 5.64559 5.84915 5.72368C5.68322 5.80177 5.50348 5.84624 5.32028 5.85452H5.32128Z" fill="#616262"/>
</svg>
