<svg width="32" height="32" viewBox="0 0 32 32" fill="none" xmlns="http://www.w3.org/2000/svg">
<path d="M24 29.666C23.9728 29.7743 23.8645 29.8285 23.6755 29.8285H20.0613C19.8438 29.8285 19.656 29.7338 19.4928 29.544L13.525 21.9518L11.8605 23.5353V29.4233C11.8605 29.6943 11.7248 29.8295 11.4543 29.8295H8.65277C8.38177 29.8295 8.24652 29.6943 8.24652 29.4233V2.5858C8.24652 2.3158 8.38152 2.1803 8.65277 2.1803H11.4545C11.725 2.1803 11.8608 2.31605 11.8608 2.58555V19.1105L19.0065 11.8835C19.196 11.6945 19.3855 11.5993 19.5748 11.5993H23.3108C23.4728 11.5993 23.5808 11.6675 23.6355 11.8018C23.69 11.9645 23.6765 12.086 23.5945 12.1675L16.042 19.4745L23.9188 29.2595C24.0265 29.368 24.0538 29.5033 24.0008 29.666" fill="#20BEFF"/>
</svg>
