<svg width="32" height="32" viewBox="0 0 32 32" fill="none" xmlns="http://www.w3.org/2000/svg">
<path d="M31.3693 30.6958L30.7153 30.0615C30.0955 29.2385 29.2983 28.5155 28.4615 27.9153C27.7943 27.4363 26.2963 26.7893 26.0178 26.013L25.9665 25.9643C26.4398 25.9108 26.9923 25.7398 27.429 25.6225C28.1625 25.426 28.768 25.4768 29.5255 25.2813C29.867 25.1838 30.2503 25.086 30.5003 24.9885V24.7935C30.2503 24.4008 29.8935 23.8808 29.476 23.5253C28.3838 22.5953 27.2158 21.666 25.9883 20.891C25.3075 20.4615 24.478 20.1823 23.7568 19.818C23.514 19.6953 23.0938 19.6315 22.9333 19.4275C22.554 18.9445 22.3513 18.332 22.0588 17.7693C21.4465 16.59 20.8465 15.3023 20.304 14.0615C19.934 13.2155 19.6933 12.3815 19.2318 11.6225C17.0168 7.98076 14.633 5.78301 10.94 3.62251C10.1538 3.16301 9.20777 2.98176 8.20777 2.74426C7.67177 2.71201 7.13502 2.67926 6.59852 2.64651C6.27077 2.51001 5.93002 2.10926 5.62302 1.91476C4.39902 1.14176 1.26077 -0.539489 0.354523 1.67101C-0.217727 3.06626 1.20952 4.42726 1.72002 5.13451C2.07877 5.63001 2.53752 6.18626 2.79327 6.74401C2.96202 7.11076 2.99077 7.47851 3.13502 7.86626C3.48952 8.82176 3.79777 9.86126 4.25677 10.744C4.48852 11.191 4.74402 11.6615 5.03727 12.061C5.21677 12.3063 5.52477 12.4143 5.57352 12.7928C5.27252 13.2143 5.25527 13.8688 5.08602 14.4028C4.32352 16.8065 4.61152 19.7945 5.72027 21.5735C6.06027 22.12 6.86177 23.2913 7.96402 22.8418C8.92802 22.4493 8.77052 21.2323 9.04627 20.1588C9.10852 19.9158 9.00002 19.7368 9.25002 19.5735V19.6223C9.50581 20.2157 9.77944 20.8013 10.0705 21.3783C10.7205 22.425 11.7928 23.5188 12.77 24.2568C13.2768 24.6395 13.75 25.301 14.25 25.525V25.4998H14.3053C14.1785 25.2498 13.9798 25.208 13.8178 25.0488C13.436 24.6748 13.0113 24.2033 12.696 23.7745C11.807 22.5678 11.0215 21.244 10.3058 19.869C9.96377 19.2125 9.66652 18.4868 9.37852 17.8188C9.26777 17.5613 9.26902 17.1708 9.03752 17.0375C8.72177 17.527 8.25702 17.9225 8.01277 18.5008C7.62252 19.4248 7.57227 20.5518 7.42752 21.72C7.34177 21.7505 7.38002 21.7295 7.32977 21.7685C6.65027 21.6048 6.41177 20.9055 6.15902 20.3053C5.52027 18.7878 5.40177 16.3445 5.96377 14.598C6.10927 14.1458 6.76652 12.7228 6.50027 12.305C6.37327 11.8888 5.95427 11.6475 5.72002 11.3293C5.42977 10.9358 5.14027 10.4178 4.93927 9.96326C4.41652 8.78051 4.17277 7.45226 3.62227 6.25626C3.35902 5.68451 2.91427 5.10576 2.54902 4.59776C2.14477 4.03451 1.69177 3.61976 1.37802 2.93901C1.26677 2.69701 1.11527 2.30951 1.28052 2.06076C1.33302 1.89301 1.40727 1.82301 1.57327 1.76826C1.85652 1.55001 2.64402 1.84076 2.93902 1.96301C3.72127 2.28801 4.37427 2.58801 5.03702 3.02701C5.35477 3.23801 5.67677 3.49951 6.06127 3.74951H6.50027C7.18702 3.74951 7.95627 3.80751 8.59802 4.00251C9.73177 4.34726 10.748 4.88801 11.671 5.47076C14.4825 7.24626 16.7813 9.77576 18.354 12.7903C18.607 13.2758 18.7165 13.74 18.9393 14.2548C19.3888 15.293 19.9553 16.3618 20.4025 17.377C20.849 18.3903 21.284 19.4125 21.915 20.2555C22.2468 20.6985 23.5278 20.9365 24.11 21.1828C24.5183 21.355 25.187 21.535 25.5735 21.7678C26.3118 22.2133 27.027 22.7438 27.72 23.2315C28.066 23.475 29.13 24.01 29.1833 24.451C27.4675 24.404 26.1573 24.564 25.037 25.0363C24.7188 25.1705 24.2108 25.1743 24.1588 25.573C24.3338 25.7563 24.361 26.0303 24.5 26.2558C24.7673 26.6883 25.219 27.2688 25.622 27.5728C26.0625 27.9053 26.516 28.2605 26.988 28.5483C27.8278 29.06 28.7648 29.3525 29.5733 29.8653C30.0498 30.1678 30.5628 30.5485 31.027 30.8895C31.257 31.0583 31.2498 31.3205 31.7498 31.4263V31.3778C31.5 31.179 31.5133 30.9045 31.3693 30.6958V30.6958ZM7.37852 5.86626C7.02077 5.85951 6.75002 5.90551 6.50002 5.96351V6.00001H6.54952C6.72027 6.25001 7.02152 6.58251 7.23227 6.88451L7.72027 7.91151L7.76852 7.86476C8.07077 7.65151 8.20927 7.31201 8.20752 6.79201C8.08677 6.66476 8.06852 6.50551 7.96402 6.35351C7.82452 6.15126 7.55427 6.03651 7.37852 5.86626V5.86626Z" fill="#00618A"/>
</svg>
