<svg width="32" height="32" viewBox="0 0 32 32" fill="none" xmlns="http://www.w3.org/2000/svg">
<path d="M28.2178 16.6505C30.4688 17.9698 31.9815 20.4073 31.9863 23.1983C31.9943 27.3995 28.582 30.8115 24.3663 30.8183C20.1505 30.8263 16.7265 27.4258 16.7188 23.2245C16.7138 20.4335 18.2178 17.9913 20.4648 16.663L22.6583 20.3575C22.713 20.45 22.6818 20.5693 22.5928 20.63C21.7628 21.1925 21.2188 22.1415 21.2208 23.2168C21.2238 24.9405 22.629 26.336 24.3583 26.332C26.088 26.329 27.4873 24.9295 27.4843 23.206C27.4825 22.131 26.9355 21.1835 26.1035 20.624C26.0148 20.5635 25.9825 20.4443 26.037 20.3515L28.2178 16.6505Z" fill="#128DFF"/>
<path d="M11.3692 16.6056C10.2301 15.9698 8.94698 15.6369 7.64248 15.6388C3.42573 15.6388 0.00872803 19.0451 0.00872803 23.2463C0.00872803 27.4473 3.42573 30.8538 7.64248 30.8538C11.879 30.8538 15.38 27.2696 15.2735 23.0508H10.9765C10.8632 23.0508 10.7745 23.1466 10.7735 23.2588C10.7627 24.9396 9.35548 26.3673 7.64248 26.3673C5.91198 26.3673 4.51073 24.9698 4.51073 23.2461C4.51073 21.5226 5.91198 20.1251 7.64248 20.1251C8.09473 20.1251 8.52548 20.2208 8.91398 20.3936C9.00973 20.4356 9.12298 20.4036 9.17573 20.3146L11.3692 16.6056Z" fill="#8BDA67"/>
<path d="M11.9862 15.412C9.73824 14.0887 8.22949 11.6485 8.22949 8.8575C8.22949 4.65625 11.6475 1.25 15.8632 1.25C20.079 1.25 23.497 4.65625 23.497 8.8575C23.497 11.6485 21.9882 14.0887 19.7402 15.412L17.5525 11.715C17.4977 11.6225 17.529 11.5033 17.619 11.4425C18.449 10.881 18.9947 9.93275 18.9947 8.8575C18.9947 7.134 17.5925 5.7365 15.863 5.7365C14.1335 5.7365 12.7312 7.134 12.7312 8.85775C12.7312 9.93275 13.277 10.881 14.1072 11.4427C14.1972 11.5032 14.2282 11.6223 14.1735 11.7153L11.9862 15.412Z" fill="#FF2A44"/>
</svg>
