<svg width="32" height="32" viewBox="0 0 32 32" fill="none" xmlns="http://www.w3.org/2000/svg">
<path d="M15.8477 3.06197C14.7922 3.06697 13.7847 3.15672 12.8977 3.31372C10.2852 3.77522 9.81124 4.74122 9.81124 6.52297V8.87572H15.9845V9.65997H7.49424C5.70024 9.65997 4.12924 10.7382 3.63774 12.7902C3.07074 15.1415 3.04574 16.609 3.63774 19.0642C4.07649 20.892 5.12449 22.194 6.91874 22.194H9.04149V19.3735C9.04149 17.3357 10.8042 15.5385 12.898 15.5385H19.0642C20.7807 15.5385 22.1507 14.125 22.1507 12.4015V6.52322C22.1507 4.84997 20.7392 3.59322 19.0642 3.31397C18.0032 3.13747 16.903 3.05722 15.8477 3.06197V3.06197ZM12.5092 4.95422C13.1467 4.95422 13.6677 5.48347 13.6677 6.13447C13.6677 6.78272 13.147 7.30697 12.5092 7.30697C11.8692 7.30697 11.351 6.78272 11.351 6.13447C11.3507 5.48347 11.8692 4.95422 12.5092 4.95422V4.95422Z" fill="url(#paint0_linear_116_24)"/>
<path d="M22.9205 9.66004V12.4015C22.9205 14.5265 21.1185 16.3153 19.064 16.3153H12.8978C11.2088 16.3153 9.81128 17.761 9.81128 19.4525V25.3313C9.81128 27.004 11.2658 27.9883 12.8978 28.468C14.8518 29.0423 16.7258 29.1463 19.064 28.468C20.618 28.0178 22.1505 27.1123 22.1505 25.3313V22.9783H15.9845V22.1938H25.2375C27.0315 22.1938 27.7005 20.9425 28.3245 19.064C28.969 17.1303 28.9413 15.2705 28.3245 12.79C27.881 11.0038 27.0343 9.65979 25.2375 9.65979H22.9205V9.66004ZM19.4523 24.5468C20.0925 24.5468 20.6108 25.071 20.6108 25.7198C20.6108 26.3703 20.0923 26.8995 19.4523 26.8995C18.8148 26.8995 18.294 26.3703 18.294 25.7198C18.294 25.071 18.8148 24.5468 19.4523 24.5468V24.5468Z" fill="url(#paint1_linear_116_24)"/>
<path opacity="0.444" d="M24.3272 29.8993C24.3272 30.785 20.6232 31.5033 16.0545 31.5033C11.4855 31.5033 7.78149 30.785 7.78149 29.8993C7.78149 29.0133 11.4852 28.295 16.0545 28.295C20.6232 28.295 24.3272 29.013 24.3272 29.8993Z" fill="url(#paint2_radial_116_24)"/>
<defs>
<linearGradient id="paint0_linear_116_24" x1="2.58421" y1="3.79762" x2="16.8227" y2="15.9401" gradientUnits="userSpaceOnUse">
<stop stop-color="#5A9FD4"/>
<stop offset="1" stop-color="#306998"/>
</linearGradient>
<linearGradient id="paint1_linear_116_24" x1="22.1797" y1="23.4881" x2="17.0736" y2="16.3276" gradientUnits="userSpaceOnUse">
<stop stop-color="#FFD43B"/>
<stop offset="1" stop-color="#FFE873"/>
</linearGradient>
<radialGradient id="paint2_radial_116_24" cx="0" cy="0" r="1" gradientUnits="userSpaceOnUse" gradientTransform="translate(16.0211 29.8534) rotate(-90) scale(1.60458 7.05347)">
<stop stop-color="#B8B8B8" stop-opacity="0.498"/>
<stop offset="1" stop-color="#7F7F7F" stop-opacity="0"/>
</radialGradient>
</defs>
</svg>
