<svg width="32" height="32" viewBox="0 0 32 32" fill="none" xmlns="http://www.w3.org/2000/svg">
<path d="M25.025 9.575L22.725 11.875C26.5 15.65 26.5 21.725 22.725 25.45C18.95 29.225 12.875 29.225 9.15002 25.45C5.37502 21.675 5.37502 15.6 9.15002 11.875L15.15 5.875L16 5.025V0.5L6.95002 9.55C1.92502 14.575 1.92502 22.7 6.95002 27.75C11.975 32.8 20.1 32.775 25.05 27.75C30.075 22.7 30.075 14.625 25.025 9.575V9.575Z" fill="#EE4C2C"/>
<path d="M22.1924 7.37333C22.2095 6.44844 21.4736 5.68478 20.5487 5.66765C19.6238 5.65052 18.8602 6.38641 18.843 7.3113C18.8259 8.23619 19.5618 8.99985 20.4867 9.01698C21.4116 9.03411 22.1752 8.29822 22.1924 7.37333Z" fill="#EE4C2C"/>
</svg>
