<svg width="13" height="14" viewBox="0 0 13 14" fill="none" xmlns="http://www.w3.org/2000/svg">
<path d="M11.6071 0.428711H1.39286C0.623884 0.428711 0 1.06367 0 1.8463V12.242C0 13.0246 0.623884 13.6596 1.39286 13.6596H11.6071C12.3761 13.6596 13 13.0246 13 12.242V1.8463C13 1.06367 12.3761 0.428711 11.6071 0.428711ZM7.07455 10.7476C7.07455 12.0352 6.3317 12.6229 5.24933 12.6229C4.27143 12.6229 3.70558 12.1091 3.4154 11.4859L4.41071 10.8746C4.60223 11.2201 4.77634 11.5125 5.1971 11.5125C5.59754 11.5125 5.8529 11.353 5.8529 10.7299V6.50368H7.07455V10.7476ZM9.96473 12.6229C8.83013 12.6229 8.09598 12.0736 7.73906 11.353L8.73438 10.7683C8.99554 11.2024 9.33795 11.5243 9.93862 11.5243C10.4435 11.5243 10.7685 11.2674 10.7685 10.91C10.7685 10.4847 10.4377 10.3341 9.87768 10.0831L9.57299 9.9502C8.69085 9.56922 8.10759 9.08783 8.10759 8.07484C8.10759 7.1416 8.80692 6.4328 9.89509 6.4328C10.6728 6.4328 11.2299 6.70746 11.6304 7.42807L10.6786 8.04826C10.4696 7.66729 10.2433 7.51667 9.89219 7.51667C9.53527 7.51667 9.30893 7.74703 9.30893 8.04826C9.30893 8.42038 9.53527 8.571 10.0605 8.80431L10.3652 8.93721C11.404 9.38907 11.9873 9.85274 11.9873 10.8923C11.9873 12.0087 11.1225 12.6229 9.96473 12.6229Z" fill="url(#paint0_linear_16_280)"/>
<defs>
<linearGradient id="paint0_linear_16_280" x1="6.5" y1="0.428711" x2="6.5" y2="13.6596" gradientUnits="userSpaceOnUse">
<stop stop-color="#693B93" stop-opacity="0.53"/>
<stop offset="1" stop-color="#693B93"/>
</linearGradient>
</defs>
</svg>
