<svg width="14" height="16" viewBox="0 0 14 16" fill="none" xmlns="http://www.w3.org/2000/svg">
<path fill-rule="evenodd" clip-rule="evenodd" d="M7 0.530151C3.13367 0.530151 0 3.94791 0 8.16333C0 12.3788 3.13367 15.7965 7 15.7965C10.8657 15.7965 14 12.3788 14 8.16333C14 3.94791 10.8657 0.530151 7 0.530151ZM7.08167 12.6275C4.82533 12.6275 2.99833 10.6301 2.99833 8.16333C2.99833 5.69654 4.82533 3.69919 7.08167 3.69919C8.18417 3.69919 9.10583 4.14256 9.81283 4.86262L8.66133 6.12082V6.11828C8.23258 5.67174 7.68892 5.44274 7.08167 5.44274C5.73417 5.44274 4.63925 6.68695 4.63925 8.16079C4.63925 9.63336 5.73417 10.8814 7.08167 10.8814C8.30433 10.8814 9.13617 10.1168 9.30767 9.06723H7.08167V7.32623H10.9229C10.9742 7.6252 11.0017 7.93688 11.0017 8.26384C11.0017 10.8146 9.44008 12.6275 7.08167 12.6275Z" fill="url(#paint0_linear_16_293)"/>
<defs>
<linearGradient id="paint0_linear_16_293" x1="7" y1="0.530151" x2="7" y2="15.7965" gradientUnits="userSpaceOnUse">
<stop stop-color="#693B93" stop-opacity="0.53"/>
<stop offset="1" stop-color="#693B93"/>
</linearGradient>
</defs>
</svg>
