<svg width="16" height="21" viewBox="0 0 16 21" fill="none" xmlns="http://www.w3.org/2000/svg">
<path d="M7.99642 20.0277C7.75649 20.0277 7.51298 19.9586 7.3017 19.8282L5.09221 18.4276C4.76276 18.2281 4.9239 18.159 5.03133 18.1206C5.4718 17.9556 5.56133 17.9211 6.03044 17.6333C6.08057 17.6026 6.14503 17.6141 6.19517 17.6487L7.89257 18.7269C7.95345 18.7653 8.03939 18.7653 8.09669 18.7269L14.7108 14.6365C14.7717 14.5981 14.8111 14.5214 14.8111 14.4446V6.26379C14.8111 6.18321 14.7717 6.1103 14.7073 6.06809L8.09669 1.98151C8.03581 1.94314 7.95345 1.94314 7.89257 1.98151L1.28559 6.07193C1.22113 6.1103 1.18174 6.18705 1.18174 6.26763V14.4446C1.18174 14.5214 1.22113 14.5981 1.28559 14.6326L3.09758 15.7531C4.08236 16.2788 4.68398 15.661 4.68398 15.0356V6.96215C4.68398 6.84704 4.76992 6.75878 4.87735 6.75878H5.71531C5.81916 6.75878 5.90868 6.84704 5.90868 6.96215V15.0394C5.90868 16.4438 5.19248 17.2496 3.94987 17.2496C3.5667 17.2496 3.26589 17.2496 2.42793 16.8045L0.694718 15.7339C0.264996 15.4692 0 14.9742 0 14.4408V6.26379C0 5.73426 0.264996 5.23543 0.694718 4.97067L7.3017 0.880247C7.72068 0.626994 8.27574 0.626994 8.69114 0.880247L15.3053 4.9745C15.735 5.23927 16 5.73426 16 6.26763V14.4446C16 14.9742 15.735 15.4692 15.3053 15.7378L8.69114 19.8282C8.47986 19.9586 8.23993 20.0277 7.99642 20.0277ZM13.3357 11.9658C13.3357 10.4348 12.3688 10.028 10.3384 9.74026C8.2829 9.44864 8.0752 9.29899 8.0752 8.78481C8.0752 8.35888 8.25067 7.79098 9.7726 7.79098C11.1298 7.79098 11.6312 8.10563 11.8389 9.08794C11.8568 9.18004 11.9355 9.2491 12.0251 9.2491H12.8845C12.9382 9.2491 12.9884 9.22608 13.0242 9.18387C13.06 9.14166 13.0779 9.08411 13.0743 9.02655C12.9418 7.33436 11.8926 6.54774 9.7726 6.54774C7.88541 6.54774 6.76097 7.39959 6.76097 8.83085C6.76097 10.3811 7.88183 10.8108 9.69024 11.0027C11.8568 11.2291 12.0251 11.5706 12.0251 12.0272C12.0251 12.8177 11.4306 13.1553 10.0376 13.1553C8.28648 13.1553 7.90331 12.6834 7.7744 11.7509C7.76007 11.6512 7.68129 11.5783 7.5846 11.5783H6.72874C6.62131 11.5783 6.53894 11.6704 6.53894 11.7816C6.53894 12.975 7.14414 14.3986 10.0412 14.3986C12.1325 14.3947 13.3357 13.5084 13.3357 11.9658Z" fill="url(#paint0_linear_16_281)"/>
<defs>
<linearGradient id="paint0_linear_16_281" x1="8" y1="0.690308" x2="8" y2="20.0277" gradientUnits="userSpaceOnUse">
<stop stop-color="#693B93" stop-opacity="0.53"/>
<stop offset="1" stop-color="#693B93"/>
</linearGradient>
</defs>
</svg>
