<svg width="27" height="28" viewBox="0 0 27 28" fill="none" xmlns="http://www.w3.org/2000/svg">
<path d="M0.771214 9.85315C0.771214 9.85315 0.132706 9.37387 0.899886 8.73469L2.6861 7.0735C2.6861 7.0735 3.19784 6.51372 3.73847 7.00175L20.2285 19.9797V26.2032C20.2285 26.2032 20.2203 27.1806 19.0141 27.0729L0.771214 9.85315Z" fill="#2489CA"/>
<path d="M5.02223 13.8641L0.771211 17.881C0.771211 17.881 0.33457 18.2186 0.771211 18.8228L2.74474 20.688C2.74474 20.688 3.21345 21.2119 3.90659 20.6163L8.412 17.0642L5.02223 13.8641Z" fill="#1070B3"/>
<path d="M12.4841 13.8974L20.2789 7.71002L20.2285 1.52005C20.2285 1.52005 19.8956 0.169049 18.785 0.872768L8.41199 10.6861L12.4841 13.8974Z" fill="#0877B9"/>
<path d="M19.0139 27.0806C19.4664 27.5625 20.0152 27.4044 20.0152 27.4044L26.0896 24.2933C26.8673 23.7421 26.7585 23.0585 26.7585 23.0585V4.47677C26.7585 3.65974 25.9544 3.37777 25.9544 3.37777L20.6892 0.739422C19.5389 0.000265866 18.785 0.87286 18.785 0.87286C18.785 0.87286 19.7539 0.147266 20.2285 1.52036V26.0897C20.2285 26.2588 20.1939 26.4244 20.1247 26.574C19.9863 26.8654 19.6847 27.1362 18.9637 27.0227L19.0139 27.0806Z" fill="#3C99D4"/>
</svg>
