<svg width="72" height="46" viewBox="0 0 72 46" fill="none" xmlns="http://www.w3.org/2000/svg">
<path d="M72 18.8945H37L2.28048 18.8945C2.18646 18.8945 2.1444 19.0124 2.21721 19.0719L32.5684 43.8666C32.6337 43.92 32.7317 43.8735 32.7317 43.7892V2.12152C32.7317 2.0228 32.6038 1.98379 32.5487 2.0657L4 44.5M42.4065 0V46M42.4065 8.82885L42.9745 14.4096C42.9752 14.4171 42.9768 14.4245 42.9792 14.4316L44.6829 19.4537L46.3902 23.9273L47.5 26.5L49 29L50 30.5L51.5 32.5L53 34.5L54.8171 36.4833L55.7256 37.475L58 39.5L59.9917 40.9938C59.9972 40.9979 60.0031 41.0015 60.0094 41.0044L61.7561 41.8218L64.5918 42.9364C64.5983 42.9389 64.6051 42.9408 64.6121 42.942L67.9919 43.4987C67.9973 43.4996 68.0027 43.5 68.0082 43.5L69.1545 43.4994" stroke="white" stroke-width="4"/>
</svg>
